<svg width="32" height="32" viewBox="0 0 32 32" fill="none" xmlns="http://www.w3.org/2000/svg">
<path d="M16.0003 2.6665C14.2494 2.6665 12.5156 3.01138 10.8979 3.68144C9.2802 4.35151 7.81035 5.33363 6.57224 6.57175C4.07175 9.07223 2.66699 12.4636 2.66699 15.9998C2.66699 19.5361 4.07175 22.9274 6.57224 25.4279C7.81035 26.666 9.2802 27.6482 10.8979 28.3182C12.5156 28.9883 14.2494 29.3332 16.0003 29.3332C19.5365 29.3332 22.9279 27.9284 25.4284 25.4279C27.9289 22.9274 29.3337 19.5361 29.3337 15.9998C29.3337 14.2489 28.9888 12.5151 28.3187 10.8974C27.6487 9.27972 26.6665 7.80986 25.4284 6.57175C24.1903 5.33363 22.7204 4.35151 21.1028 3.68144C19.4851 3.01138 17.7513 2.6665 16.0003 2.6665ZM9.42699 24.3732C10.0003 23.1732 13.4937 21.9998 16.0003 21.9998C18.507 21.9998 22.0003 23.1732 22.5737 24.3732C20.7058 25.8605 18.388 26.6692 16.0003 26.6665C13.5203 26.6665 11.2403 25.8132 9.42699 24.3732ZM24.4803 22.4398C22.5737 20.1198 17.947 19.3332 16.0003 19.3332C14.0537 19.3332 9.42699 20.1198 7.52033 22.4398C6.10208 20.5926 5.33341 18.3287 5.33366 15.9998C5.33366 10.1198 10.1203 5.33317 16.0003 5.33317C21.8803 5.33317 26.667 10.1198 26.667 15.9998C26.667 18.4265 25.8403 20.6665 24.4803 22.4398ZM16.0003 7.99984C13.4137 7.99984 11.3337 10.0798 11.3337 12.6665C11.3337 15.2532 13.4137 17.3332 16.0003 17.3332C18.587 17.3332 20.667 15.2532 20.667 12.6665C20.667 10.0798 18.587 7.99984 16.0003 7.99984ZM16.0003 14.6665C15.4699 14.6665 14.9612 14.4558 14.5861 14.0807C14.211 13.7056 14.0003 13.1969 14.0003 12.6665C14.0003 12.1361 14.211 11.6274 14.5861 11.2523C14.9612 10.8772 15.4699 10.6665 16.0003 10.6665C16.5308 10.6665 17.0395 10.8772 17.4145 11.2523C17.7896 11.6274 18.0003 12.1361 18.0003 12.6665C18.0003 13.1969 17.7896 13.7056 17.4145 14.0807C17.0395 14.4558 16.5308 14.6665 16.0003 14.6665Z" fill="#798AA3"/>
</svg>
