<svg width="456" height="120" xmlns="http://www.w3.org/2000/svg">
 <g>
  <title>Layer 1</title>
  <g id="svg_1" text-anchor="middle" font-weight="400">
   <g id="svg_2" font-size="72" font-family="Brandmark Sans 1 Color">
    <path id="svg_3" class="c1" aria-label="E" d="m0.00001,120.01l84.966,0l0,-25.323l-84.966,0l0,25.323zm0,-46.804l84.966,0l0,-25.323l-84.966,0l0,25.323zm0,-73.206l0,25.322l84.966,0l0,-25.322l-84.966,0z"/>
    <path id="svg_4" class="c1" aria-label="V" d="m227.81901,0l-46.324,120.011l-32.043,0l-46.444,-120.011l32.284,0l30.241,83.766l30.003,-83.766l32.283,0z"/>
    <path id="svg_5" class="c1" aria-label="E" d="m245.74201,120.01l84.966,0l0,-25.323l-84.966,0l0,25.323zm0,-46.804l84.966,0l0,-25.323l-84.966,0l0,25.323zm0,-73.206l0,25.322l84.966,0l0,-25.322l-84.966,0z"/>
    <g id="svg_6" aria-label="^N">
     <path id="svg_7" class="c1" d="m456.28001,120.01l-28.203,0l-50.885,-69.485l0,69.485l-28.442,0l0,-120.01l26.282,0l81.248,110.05l0,9.96z"/>
     <path id="svg_8" class="c3" d="m427.83701,0l28.443,0l0,47.882l-28.443,0l0,-47.882z" fill="#007aff"/>
    </g>
   </g>
  </g>
 </g>
</svg>